HIERARCHY
ROOT Hips
{
	OFFSET 0.00000 0.00000 0.00000
	CHANNELS 6 Xposition Yposition Zposition Zrotation Yrotation Xrotation 
	JOINT LHipJoint
	{
		OFFSET 0 0 0
		CHANNELS 3 Zrotation Yrotation Xrotation
		JOINT LeftUpLeg
		{
			OFFSET 1.75344 -1.53157 0.77399
			CHANNELS 3 Zrotation Yrotation Xrotation
			JOINT LeftLeg
			{
				OFFSET 2.25415 -6.19323 0.00000
				CHANNELS 3 Zrotation Yrotation Xrotation
				JOINT LeftFoot
				{
					OFFSET 2.30342 -6.32861 0.00000
					CHANNELS 3 Zrotation Yrotation Xrotation
					JOINT LeftToeBase
					{
						OFFSET 0.10958 -0.30108 1.49206
						CHANNELS 3 Zrotation Yrotation Xrotation
						End Site
						{
							OFFSET 0.00000 -0.00000 0.77783
						}
					}
				}
			}
		}
	}
	JOINT RHipJoint
	{
		OFFSET 0 0 0
		CHANNELS 3 Zrotation Yrotation Xrotation
		JOINT RightUpLeg
		{
			OFFSET -1.81912 -1.53156 0.77399
			CHANNELS 3 Zrotation Yrotation Xrotation
			JOINT RightLeg
			{
				OFFSET -2.22882 -6.12365 0.00000
				CHANNELS 3 Zrotation Yrotation Xrotation
				JOINT RightFoot
				{
					OFFSET -2.21943 -6.09785 0.00000
					CHANNELS 3 Zrotation Yrotation Xrotation
					JOINT RightToeBase
					{
						OFFSET -0.18931 -0.52012 1.59379
						CHANNELS 3 Zrotation Yrotation Xrotation
						End Site
						{
							OFFSET -0.00000 -0.00000 0.84686
						}
					}
				}
			}
		}
	}
	JOINT LowerBack
	{
		OFFSET 0 0 0
		CHANNELS 3 Zrotation Yrotation Xrotation
		JOINT Spine
		{
			OFFSET -0.00200 1.66634 -0.14248
			CHANNELS 3 Zrotation Yrotation Xrotation
			JOINT Spine1
			{
				OFFSET -0.00875 1.64542 0.09514
				CHANNELS 3 Zrotation Yrotation Xrotation
				JOINT Neck
				{
					OFFSET 0 0 0
					CHANNELS 3 Zrotation Yrotation Xrotation
					JOINT Neck1
					{
						OFFSET 0.02257 1.59605 0.00839
						CHANNELS 3 Zrotation Yrotation Xrotation
						JOINT Head
						{
							OFFSET -0.10214 1.57530 -0.23335
							CHANNELS 3 Zrotation Yrotation Xrotation
							End Site
							{
								OFFSET -0.03588 1.60717 -0.08062
							}
						}
					}
				}
				JOINT LeftShoulder
				{
					OFFSET 0 0 0
					CHANNELS 3 Zrotation Yrotation Xrotation
					JOINT LeftArm
					{
						OFFSET 2.54983 1.10186 0.40078
						CHANNELS 3 Zrotation Yrotation Xrotation
						JOINT LeftForeArm
						{
							OFFSET 4.28840 -0.00000 0.00000
							CHANNELS 3 Zrotation Yrotation Xrotation
							JOINT LeftHand
							{
								OFFSET 3.06552 -0.00000 -0.00000
								CHANNELS 3 Zrotation Yrotation Xrotation
								JOINT LeftFingerBase
								{
									OFFSET 0 0 0
									CHANNELS 3 Zrotation Yrotation Xrotation
									JOINT LeftHandIndex1
									{
										OFFSET 0.75304 -0.00000 0.00000
										CHANNELS 3 Zrotation Yrotation Xrotation
										End Site
										{
											OFFSET 0.60712 -0.00000 0.00000
										}
									}
								}
								JOINT LThumb
								{
									OFFSET 0 0 0
									CHANNELS 3 Zrotation Yrotation Xrotation
									End Site
									{
										OFFSET 0.61639 -0.00000 0.61639
									}
								}
							}
						}
					}
				}
				JOINT RightShoulder
				{
					OFFSET 0 0 0
					CHANNELS 3 Zrotation Yrotation Xrotation
					JOINT RightArm
					{
						OFFSET -2.60909 1.35448 0.21802
						CHANNELS 3 Zrotation Yrotation Xrotation
						JOINT RightForeArm
						{
							OFFSET -4.52172 -0.00000 -0.00000
							CHANNELS 3 Zrotation Yrotation Xrotation
							JOINT RightHand
							{
								OFFSET -2.89140 -0.00000 0.00000
								CHANNELS 3 Zrotation Yrotation Xrotation
								JOINT RightFingerBase
								{
									OFFSET 0 0 0
									CHANNELS 3 Zrotation Yrotation Xrotation
									JOINT RightHandIndex1
									{
										OFFSET -0.68054 -0.00000 0.00000
										CHANNELS 3 Zrotation Yrotation Xrotation
										End Site
										{
											OFFSET -0.54867 -0.00000 0.00000
										}
									}
								}
								JOINT RThumb
								{
									OFFSET 0 0 0
									CHANNELS 3 Zrotation Yrotation Xrotation
									End Site
									{
										OFFSET -0.55705 -0.00000 0.55705
									}
								}
							}
						}
					}
				}
			}
		}
	}
}
MOTION
Frames: 14
Frame Time: 0.142857
0.00 0.00 0.00 0 0 0 0 0 0 -21 0 0 0 0 0 0 0 0 0 0 0 0 0 0 21 0 0 0 0 0 0 0 0 0 0 0 0 0 0 0 0 0 0 0 0 0 0 -16 0 0 21 0 0 11 0 0 0 -8 0 0 0 0 0 0 0 0 0 0 0 0 0 0 0 0 0 0 0 0 8 0 0 0 0 0 0 0 0 0 0 0 0 0 0 0 0 0
0.00 0.00 0.00 -179.4450 0.6455 -177.7310 0.0000 0.0000 0.0000 -27.4577 -19.7108 -4.1904 2.6540 10.1127 29.3425 2.2284 6.3175 -31.0073 0.3461 -3.7802 -10.4590 0.0000 0.0000 0.0000 20.4010 16.0272 -14.6948 -5.8778 -14.3089 44.4895 -0.5517 -13.4763 -24.6095 -0.0895 -1.9293 5.3103 -5.7593 2.5520 6.6609 -5.8517 3.0824 -2.0316 -3.2891 1.8212 -5.8415 -7.3029 -1.9127 -6.4900 10.2244 -3.4085 11.9424 4.1713 -1.5370 4.9245 -0.0000 0.0000 0.0000 -89.2814 -9.6157 106.0567 115.9195 -57.3027 -82.2437 -0.0000 0.0000 -30.7256 -16.3535 -28.0763 7.8631 -7.1250 0.0000 -0.0000 -26.6358 3.2423 28.4109 -0.0000 0.0000 0.0000 95.3079 9.5677 88.3566 -19.6200 30.1818 -5.3390 0.0000 0.0000 14.8103 8.6014 -54.7329 -7.0404 7.1250 -0.0000 -0.0000 81.6039 -68.8445 -58.5353
0.00 0.00 0.00 -175.7200 -3.8599 -173.6700 0.0000 0.0000 0.0000 -16.6083 -9.2585 -0.1934 4.8380 13.1990 40.1179 0.7291 -7.4548 -15.3221 2.6495 -10.1048 -29.3169 0.0000 0.0000 0.0000 27.4052 20.8387 -20.1027 -2.9943 -10.6857 31.2272 -0.0687 -11.4000 -17.1635 -0.2758 -3.3779 9.3328 -5.9990 1.9016 8.5296 -5.7415 1.0066 -2.3668 -2.8337 0.4266 -7.3436 -9.9926 -4.4303 -9.6451 15.6306 -5.9920 2.5560 6.0884 -2.7103 3.1521 -0.0000 -0.0000 0.0000 -90.3269 -8.6111 104.8560 117.4976 -56.9407 -83.5690 -0.0000 0.0000 -28.3723 -18.8554 -26.7665 8.7436 -7.1250 0.0000 -0.0000 -28.0353 4.2986 29.7590 -0.0000 -0.0000 0.0000 96.5769 11.5489 83.7876 -20.3141 31.0189 -5.6923 0.0000 0.0000 16.6904 9.2297 -54.0645 -7.4954 7.1250 -0.0000 -0.0000 80.2813 -68.4797 -56.7506
0.00 0.00 0.00 -173.4680 -5.1828 -174.4520 0.0000 0.0000 0.0000 -10.9851 -11.5385 -9.3750 9.7274 17.2537 58.5732 -0.1971 -9.5603 -2.3360 1.4514 -7.6152 -21.5512 0.0000 0.0000 0.0000 31.9799 18.1357 -16.6797 -2.6907 -10.1767 29.5507 -0.2246 -10.6282 -18.1566 -0.5216 -4.6286 12.8523 -3.8512 1.1461 9.8697 -5.3871 0.2734 -2.1853 -3.5828 0.0224 -7.8915 -9.8336 -4.4973 -10.3055 15.8369 -6.1115 2.6130 6.1078 -2.7474 3.2985 0.0000 -0.0000 0.0000 -90.2817 -8.9897 104.4001 117.8296 -56.8611 -83.8471 -0.0000 0.0000 -28.6359 -19.0497 -26.7062 8.8210 -7.1250 0.0000 -0.0000 -28.1389 4.3397 29.8809 0.0000 -0.0000 0.0000 96.6399 12.1578 84.7834 -21.4629 32.3646 -6.2959 0.0000 0.0000 14.7379 8.1604 -54.3787 -6.6487 7.1250 -0.0000 -0.0000 80.5078 -68.9118 -57.5322
0.00 0.00 0.00 -172.6330 -5.4923 -175.2710 0.0000 0.0000 0.0000 -6.7553 -15.8411 -24.8291 16.0130 19.6145 78.2705 -0.4771 -13.1956 -0.6910 0.6120 -5.0070 -13.9286 0.0000 0.0000 0.0000 35.0816 17.0845 -14.4434 -3.2884 -11.1479 32.7804 -0.7662 -9.9411 -22.9730 -0.8067 -5.7321 16.0090 -2.8775 1.5751 11.1674 -5.2897 0.9372 -2.1104 -4.1887 0.3140 -8.5168 -11.6344 -4.9982 -7.6091 17.0481 -6.6841 0.9474 6.8113 -3.1653 2.5495 0.0000 0.0000 0.0000 -90.7979 -7.8955 105.8557 117.7224 -56.8869 -83.7574 -0.0000 0.0000 -28.0976 -19.1241 -27.3896 9.0634 -7.1250 0.0000 -0.0000 -28.0920 3.7054 30.1880 0.0000 0.0000 0.0000 96.8257 11.2458 79.9203 -23.1239 34.2240 -7.2079 0.0000 0.0000 15.1433 4.3523 -55.3207 -3.5814 7.1250 -0.0000 -0.0000 81.2021 -70.3993 -60.0980
0.00 0.00 0.00 -173.2900 1.8984 -178.9430 0.0000 0.0000 0.0000 -7.4863 -27.4584 -25.5109 3.4879 11.4458 33.7986 0.2921 10.3611 -18.6439 0.8577 -5.9059 -16.5115 0.0000 0.0000 0.0000 33.3902 1.5208 6.7117 -4.1282 -12.3291 36.9065 0.2321 -8.6386 -1.5609 -0.3288 -3.6855 10.1934 -2.8043 2.3312 8.8331 -5.9652 2.8200 -2.2400 -5.1874 1.5380 -7.1639 -10.9175 -4.3638 -8.2154 15.3348 -5.9142 3.5131 6.1792 -2.6992 3.1987 -0.0000 0.0000 0.0000 -90.6654 -9.1111 105.5091 116.4439 -57.1854 -82.6847 -0.0000 0.0000 -30.6425 -21.5168 -25.9347 9.7830 -7.1250 0.0000 -0.0000 -29.4430 4.8300 31.4608 -0.0000 0.0000 0.0000 96.1290 8.3574 84.2878 -20.5893 31.3458 -5.8348 0.0000 0.0000 18.9298 8.8466 -57.7733 -7.5007 7.1250 -0.0000 -0.0000 89.4322 -69.2367 -67.1141
0.00 0.00 0.00 -174.7560 1.1420 -180.3570 0.0000 0.0000 0.0000 -13.8949 -22.3144 -18.8625 3.1773 10.9767 32.2012 0.6851 6.5751 -19.3866 1.9630 -8.7885 -25.1361 0.0000 0.0000 0.0000 29.8852 2.7802 -0.7594 -8.5238 -16.4913 54.4280 -0.5528 -14.2473 15.5261 -1.7938 -8.4227 24.0054 -3.3922 2.6039 9.4122 -6.3714 3.1415 -2.1250 -5.3828 1.7430 -7.3623 -11.1257 -4.8706 -8.1305 15.4375 -6.6290 3.8513 6.1953 -3.0483 3.3919 -0.0000 -0.0000 0.0000 -90.6349 -8.7020 105.8388 116.4541 -57.1831 -82.6932 -0.0000 0.0000 -31.0979 -22.4047 -25.1427 9.9352 -7.1250 0.0000 -0.0000 -29.9800 5.4598 31.8462 -0.0000 -0.0000 0.0000 96.2755 7.8523 84.1727 -20.2144 30.8997 -5.6410 0.0000 0.0000 19.2816 12.3479 -57.6418 -10.4767 7.1250 -0.0000 -0.0000 90.3403 -68.0785 -66.6369
0.00 0.00 0.00 -176.4120 -0.3241 -181.0400 0.0000 0.0000 0.0000 -19.1570 -15.8691 -13.7572 3.2783 11.1324 32.7278 1.4104 0.1317 -22.5154 2.2115 -9.2934 -26.7174 0.0000 0.0000 0.0000 26.2491 2.5059 -17.2978 -14.1676 -19.1641 72.7156 0.1757 -8.6689 1.6300 -0.3834 -3.9766 11.0110 -4.6851 3.2570 10.3016 -6.5693 2.6806 -1.9290 -4.7970 1.1183 -7.7813 -12.3448 -5.3433 -7.3156 16.8288 -7.2201 2.4445 6.8230 -3.3993 3.0296 -0.0000 0.0000 0.0000 -90.9978 -8.0916 106.3112 116.4319 -57.1881 -82.6746 -0.0000 0.0000 -30.4570 -21.9945 -25.0971 9.7216 -7.1250 0.0000 -0.0000 -29.7900 5.5470 31.5078 -0.0000 0.0000 0.0000 96.3592 9.0332 84.6193 -22.5416 33.5837 -6.8830 0.0000 0.0000 13.7699 1.9802 -56.0171 -1.6422 7.1250 -0.0000 -0.0000 82.2397 -71.3312 -62.2764
0.00 0.00 0.00 -171.0560 -4.4582 -179.3830 0.0000 0.0000 0.0000 -8.8872 -16.2987 -34.4331 13.5499 18.9718 70.8252 0.9441 -2.9734 -17.6030 2.0032 -8.8728 -25.3981 0.0000 0.0000 0.0000 38.9163 8.7032 -9.1324 -2.9527 -10.6180 31.0022 -1.0492 -10.5799 -25.8604 -0.2695 -3.3397 9.2259 -1.5665 2.3737 11.2332 -5.2214 2.2300 -2.1186 -5.0994 0.8942 -8.4424 -10.8640 -4.8360 -8.4957 16.8991 -6.6238 2.2562 6.6146 -3.0669 3.0385 0.0000 -0.0000 0.0000 -90.9910 -7.9653 105.2339 116.0565 -57.2724 -82.3589 -0.0000 0.0000 -30.1254 -21.0764 -26.2927 9.6878 -7.1250 0.0000 -0.0000 -29.1823 4.5455 31.2574 0.0000 -0.0000 0.0000 96.5848 9.6307 89.8932 -37.2440 46.3496 -16.4163 0.0000 0.0000 3.3018 -1.9530 -56.9954 1.6380 7.1250 -0.0000 -0.0000 84.0710 -72.8057 -65.8792
0.00 0.00 0.00 -173.2320 1.6044 -180.3910 0.0000 0.0000 0.0000 -7.0182 -28.8434 -30.5319 2.5618 9.9495 28.8133 0.8045 13.4367 -26.6047 0.4042 -4.0815 -11.3060 0.0000 0.0000 0.0000 37.0236 -3.1389 21.1191 -0.4128 -4.1245 11.4271 -0.5631 -4.6095 -16.6069 -0.1389 -2.4018 6.6176 2.0094 1.8550 8.1106 -4.9137 2.5899 -2.3679 -6.7117 1.1629 -6.7409 -9.1216 -2.4733 -14.6102 15.4736 -4.4427 13.3996 6.1390 -1.5163 7.0633 0.0000 0.0000 0.0000 -90.8065 -8.1750 106.3791 116.7599 -57.1133 -82.9502 -0.0000 0.0000 -32.1217 -19.9297 -25.1961 8.7748 -7.1250 0.0000 -0.0000 -28.7693 5.6564 29.9670 0.0000 0.0000 0.0000 95.3768 7.0945 90.3439 -33.5015 43.7120 -13.7674 0.0000 0.0000 14.8995 11.1071 -52.9755 -8.9080 7.1250 -0.0000 -0.0000 78.7503 -67.5702 -54.0561
0.00 0.00 0.00 -176.2380 -60.1821 -181.2920 0.0000 0.0000 0.0000 -19.6914 -23.3902 -8.6296 4.0454 12.2206 36.5168 -2.1122 -25.8364 1.6684 5.0011 13.3851 40.8275 0.0000 0.0000 0.0000 18.5572 27.0483 -8.3716 -2.5282 -9.8891 28.6182 -0.6878 0.8000 -15.4165 -0.6295 5.0769 -14.1281 1.7137 0.8883 9.7761 -3.6146 1.0926 -1.3347 -4.9580 0.3699 -6.8026 11.4052 17.8143 -1.7104 -12.1838 24.0192 2.2156 -3.8979 11.8304 3.7472 0.0000 -0.0000 0.0000 -90.0133 -5.6212 106.8265 114.9025 -57.5220 -81.3868 -0.0000 0.0000 -26.2344 -25.7073 -23.6334 10.9235 -7.1250 0.0000 -0.0000 -31.7552 6.3934 33.9104 0.0000 -0.0000 0.0000 98.8858 10.2162 65.3231 -17.1611 27.0697 -4.1604 0.0000 0.0000 25.3050 -8.8373 -58.6602 7.5641 7.1250 -0.0000 -0.0000 89.3559 -75.1877 -74.0011
0.00 0.00 0.00 -5.8330 -63.6198 -349.0880 0.0000 0.0000 0.0000 -18.4669 -8.5830 -23.6021 6.8664 15.2183 48.3671 1.9363 0.3792 -26.4778 3.0882 -10.8365 -31.7306 0.0000 0.0000 0.0000 29.1287 8.3518 -11.0403 -2.1208 -9.1134 26.1506 1.2251 -27.5968 -31.6522 -0.3437 -3.7671 10.4223 2.9272 0.6452 9.9363 0.8501 1.2754 -1.3782 -0.9547 0.5231 -6.9939 9.5336 14.7304 -3.8860 -9.1128 19.6720 3.4512 -3.0878 9.6763 3.4749 -0.0000 0.0000 0.0000 -93.0297 -5.0594 100.0297 115.7737 -57.3348 -82.1210 -0.0000 0.0000 -22.1632 -28.0491 -21.8217 11.2027 -7.1250 0.0000 -0.0000 -33.1120 7.6295 35.1423 -0.0000 0.0000 0.0000 98.3359 14.7475 68.5319 -16.8355 26.6405 -4.0133 0.0000 0.0000 18.6536 -10.6922 -58.4904 9.1445 7.1250 -0.0000 -0.0000 88.9174 -75.8302 -74.2622
0.00 0.00 0.00 -0.4803 -32.6696 -353.0370 0.0000 0.0000 0.0000 -23.6505 -11.5454 -14.0312 3.1739 10.9714 32.1836 2.0693 3.5989 -28.6524 0.7374 -5.4858 -15.2994 0.0000 0.0000 0.0000 27.3337 0.6013 -20.1006 -3.3846 -11.2930 33.2746 -2.9565 -27.6662 -50.4952 -7.1885 -15.4886 49.5838 3.1172 1.0469 8.3003 1.6870 1.8357 -1.8922 -0.2381 0.8108 -6.6073 1.1664 3.3338 -8.5990 3.7970 4.0100 5.9589 1.2674 2.1737 3.3955 -0.0000 -0.0000 0.0000 -92.7872 -5.6658 101.5424 113.9050 -57.7266 -80.5443 -0.0000 0.0000 -21.8263 -29.7273 -23.2674 12.7113 -7.1250 0.0000 -0.0000 -33.5841 5.9705 37.2595 -0.0000 -0.0000 0.0000 97.5740 14.1868 66.3698 -13.9876 22.7170 -2.8233 0.0000 0.0000 25.8948 -1.7696 -56.3880 1.4739 7.1250 -0.0000 -0.0000 82.1679 -72.6796 -63.8219
0.00 0.00 0.00 -3.4075 2.0811 -353.6510 0.0000 0.0000 0.0000 -9.2242 -27.9821 -34.8127 2.9791 10.6612 31.1456 1.2426 5.6165 -23.7714 0.5546 -4.7705 -13.2552 0.0000 0.0000 0.0000 36.4440 4.9672 3.4275 -0.4308 -4.2119 11.6737 0.0868 -19.5920 -27.0215 -0.2970 -3.5040 9.6853 1.1160 -0.0144 12.1958 1.3111 0.2658 -1.8357 0.7169 0.1099 -8.8286 -12.2497 -11.5388 -0.8740 11.5320 -15.1020 -5.8133 5.0764 -7.5072 0.2383 -0.0000 -0.0000 0.0000 -93.5606 -2.6487 100.4880 111.8481 -58.1172 -78.8014 -0.0000 0.0000 -21.1320 -31.9882 -20.7815 12.4951 -7.1250 0.0000 -0.0000 -34.9590 7.6640 38.2956 -0.0000 -0.0000 0.0000 98.8775 14.9876 59.9024 -13.6299 22.2032 -2.6867 0.0000 0.0000 27.3781 -5.5581 -53.0482 4.4467 7.1250 -0.0000 -0.0000 69.9546 -73.3390 -52.9095
